<svg version="1.2" xmlns="http://www.w3.org/2000/svg" viewBox="0 0 110 125" width="300" height="341">
	<title>al-ahli-saudi-fc-seeklogo</title>
	<style>
		.s0 { fill: #ffffff } 
		.s1 { fill: #002a49 } 
		.s2 { fill: #008357 } 
	</style>
	<g id="Page 1">
		<path id="Path 1" fill-rule="evenodd" class="s0" d="m54.5 124.7c-0.1-0.1-14.3-6.6-28-21.6-8-8.8-14.3-18.8-18.8-29.6-5.5-13.6-8.1-28.5-7.7-44.5l0.1-1.2 1.2 0.1c0 0 0.8 0.1 2.1 0.1 3.4 0 10-0.5 16-4 7.3-4.4 11.3-11.9 12-22.3l0.1-1.8 1.6 0.9c0 0.1 7.7 4.4 21.9 4.4 14.2 0 21.8-4.3 21.9-4.4l1.6-0.9 0.1 1.8c0.7 10.4 4.7 17.9 12 22.3 6 3.5 12.6 4 16 4 1.2 0 2 0 2.1-0.1l1.2-0.1v1.2c0.5 16-2.1 30.9-7.7 44.5-4.4 10.8-10.7 20.8-18.8 29.6-13.7 15-27.8 21.5-27.9 21.6l-0.5 0.2z"/>
		<path id="Path 2" fill-rule="evenodd" class="s0" d="m54.6 121.3c-0.2-0.1-13.5-6.3-26.5-20.4-7.6-8.4-13.6-17.8-17.8-28-5.2-12.8-7.7-27-7.2-42.1v-1.1l1.1 0.1c0 0 0.8 0.1 2 0.1 3.2 0 9.5-0.5 15.1-3.8 6.9-4.1 10.8-11.2 11.4-21l0.1-1.7 1.5 0.8c0 0.1 7.2 4.1 20.7 4.1 13.4 0 20.7-4 20.7-4.1l1.5-0.8 0.1 1.7c0.6 9.8 4.5 16.9 11.4 21 5.6 3.3 11.9 3.8 15.1 3.8 1.1 0 1.9-0.1 2-0.1l1.1-0.1v1.1c0.4 15.1-2 29.3-7.2 42.1-4.2 10.2-10.2 19.6-17.8 28-13 14.1-26.3 20.3-26.5 20.4l-0.4 0.2z"/>
		<path id="Path 3" fill-rule="evenodd" class="s1" d="m108.8 29c0 0-0.8 0.1-2.2 0.1-6.9 0-27.5-2.1-29.1-27.3 0 0-7.7 4.5-22.5 4.5-14.8 0-22.5-4.5-22.5-4.5-1.6 25.2-22.2 27.3-29.1 27.3-1.4 0-2.2-0.1-2.2-0.1-1.9 69.3 53.8 94.7 53.8 94.7 0 0 55.7-25.4 53.8-94.7zm-9.8 43c-4.3 10.4-10.3 20-18 28.5-6.9 7.6-13.9 12.9-18.5 16-3.4 2.3-6.1 3.8-7.5 4.5-3.4-1.8-14.7-8.1-25.8-20.3-7.8-8.5-13.9-18.1-18.2-28.6-5-12.4-7.5-26-7.4-40.5 3.8 0 11-0.7 17.6-4.6 3.8-2.2 6.9-5.3 9.1-9 2.2-3.6 3.6-7.8 4.3-12.6 3.7 1.4 10.6 3.3 20.4 3.3 9.8 0 16.7-1.9 20.4-3.3 0.7 4.8 2.1 9 4.2 12.6 2.3 3.7 5.4 6.8 9.2 9 6.6 3.9 13.8 4.6 17.6 4.6 0.1 14.5-2.4 28-7.4 40.4zm-50.4-8.1l-0.1-1.3-1 0.1 0.1 1.3zm-8.3 0.7l-0.1-1.2-1 0.1 0.1 1.2zm23-1.2l-1.1 0.4 0.4 5.1q0 0.2-0.1 0.2l-0.8 0.1c-0.9 0-1-0.3-1-0.9-0.1-0.8 0.1-1.9 0.2-2.9l-1.1 0.1c-0.2 1-0.3 2-0.2 3 0.1 1.5 1 1.8 2 1.8l1.2-0.2c0.8 0 1.1-0.6 1-1.3zm11.8-2.5l-1.2 0.3 0.4 5.1q0.1 0.2-0.1 0.2h-0.5l-0.4 0.1q-0.2 0-0.2-0.2l-0.3-3.5-1.2 0.3 0.5 5.1q0 0.1-0.2 0.2h-0.8l0.1 1.1 0.8-0.1c0.7 0 1.3-0.4 1.2-1.4l-0.1-1.2c0 0.6 0.5 0.7 0.7 0.7l0.8-0.1c0.6 0 1-0.6 0.9-1.3zm-54.5 5.5l1.9-0.5v-0.5l-1.9 0.5zm1.8-1.5l-0.1-0.5-1.9 0.5 0.1 0.6zm5.6 2.8c0-0.8-0.6-1.4-1.7-1.4l-0.2 0.1c-0.9 0-1.5 0.8-1.4 1.6l0.3 2.7q0 0.2-0.2 0.2h-0.4l-1 0.1 0.2-2.7c0.1-1.1-0.5-1.7-1.6-1.6l-0.8 0.1c-1 0.1-1.5 0.9-1.3 1.8l0.7 2.7-0.9 0.1h-0.5q-0.1 0-0.2-0.1l-0.4-5.4-1.2 0.3 0.5 5.2c0 0.7 0.5 1.2 1.2 1.1l0.7-0.1 4.7-0.4 0.8-0.1c0.6 0 0.8-0.6 0.8-0.9 0.1 0.4 0.4 0.8 1.2 0.8 0.8-0.1 1.1-0.7 1-1.3zm-5.8 3.4h-0.5l-0.7-3.1c0-0.1 0-0.2 0.1-0.2l1.1-0.1c0.1 0 0.2 0.1 0.2 0.2zm4.6-0.4l-0.6 0.1q-0.1 0-0.2-0.2l-0.2-3c-0.1-0.1 0-0.2 0.1-0.2h0.6q0.2 0 0.2 0.1l0.3 3q0 0.2-0.2 0.2zm49.3-9.8l0.6 6.4 1.2-0.1-0.6-6.6zm11.6 4.3l-0.3-3.2q0-0.1 0.1-0.2h0.6q0.2 0 0.2 0.1l0.2 1.9 1.1-0.4-0.1-1.3c-0.1-1-0.6-1.4-1.6-1.3h-0.4c-1 0.1-1.4 0.6-1.3 1.6l0.2 1.9c0.1 0.7 0.4 1 0.7 1l-1.2 0.1h-0.6l-0.4-4-1.2 0.3 0.4 3.8-0.7 0.1h-0.4q-0.2 0-0.2-0.1l-0.3-3.9-1.2 0.4 0.5 5.3q0 0.2-0.2 0.2l-0.8 0.1 0.1 1.1 0.8-0.1c0.7-0.1 1.3-0.5 1.2-1.4l-0.1-1.3c0 0.6 0.5 0.8 0.7 0.8l6.3-0.6v-1.1c0 0-2.1 0.2-2.1 0.2zm-15.2-2.9l-0.1-1.2-1 0.1 0.1 1.2zm-40.4 10l0.2 1.2 1-0.1-0.1-1.2zm61.7-10.7c-0.1-0.9-0.8-1.3-1.7-1.2h-0.2c-0.9 0.1-1.5 0.7-1.4 1.6l0.2 2.7c0.1 0.7 0.5 1.2 1.2 1.2h0.1c0.5-0.1 0.9-0.4 0.9-1l0.1 1.4c0 0.1-0.1 0.2-0.1 0.2l-1.1 0.1 0.1 1 1.1-0.1c0.8 0 1.3-0.5 1.2-1.4zm-1.1 3.1h-0.6q-0.2 0-0.2-0.1l-0.3-3q0-0.2 0.2-0.2l0.6-0.1q0.1 0 0.2 0.2l0.2 3q0 0.1-0.1 0.2zm-8.5 2.3l0.1 1.3 1-0.1-0.1-1.3zm-28.5-3l-1.2 0.3 0.4 3.6q0 0.2-0.2 0.2l-0.9 0.1-0.3-3.7-1.2 0.3 0.3 3.5-1 0.1-0.3-3.7-1.2 0.3 0.3 3.5-0.8 0.1h-0.7l-0.3-4-1.2 0.3 0.4 3.8-0.7 0.1h-0.6q0 0 0-0.1l-0.3-2.7c0-0.9-0.7-1.5-1.7-1.4h-0.2c-0.9 0.1-1.5 0.8-1.4 1.7l0.2 2.7q0.1 0.1-0.1 0.1l-0.4 0.1h-0.6l-0.3-3.1c-0.1-0.8-0.7-1.2-1.4-1.2-0.3 0.1-0.6 0.2-0.9 0.4l-0.5 0.5-0.1-0.7-1.1 0.3 0.3 4.2-0.6 0.1h-0.4q-0.1 0-0.2-0.2l-0.3-4.2-2.2 0.2c-0.8 0.1-1.1 0.5-1 1.2l0.6 3.8-0.6 0.1c-0.5 0-0.9 0-0.9-0.8-0.1-0.7 0.1-2.7 0.1-2.7l-1.2 0.1c0 0-0.2 1.7-0.1 2.7 0.1 1.6 1 1.8 2 1.7h0.9c0.7-0.1 1.1-0.7 1-1.4l-0.6-3.5c0-0.1 0-0.1 0.1-0.1l0.8-0.1 0.3 3.2c0 0.7 0.5 1.1 1.2 1.1l0.6-0.1 5.2-0.4 0.8-0.1c0.5-0.1 0.8-0.6 0.8-0.9 0.1 0.4 0.4 0.8 1.1 0.7 0.5 0 0.8-0.3 1-0.6 0.1 0.3 0.3 0.5 0.8 0.4l2.5-0.2 5.4-0.5c0.6 0 1-0.6 1-1.3 0 0-0.4-3.8-0.4-3.8zm-16.5 5.5l-0.2-2.3q0-0.1 0.1-0.2l1.2-1q0.1 0 0.1 0 0.1 0 0.1 0.1l0.3 3.3zm5.9-0.6l-0.6 0.1q-0.2 0-0.2-0.2l-0.3-3c0-0.1 0.1-0.1 0.2-0.1l0.6-0.1q0.2 0 0.2 0.1l0.2 3q0.1 0.2-0.1 0.2zm24.8-5.1c-0.1-0.9-0.7-1.5-1.7-1.4h-0.2c-0.9 0.1-1.5 0.8-1.4 1.7l0.2 2.7q0 0.2-0.1 0.2h-0.5l-0.4 0.1q-0.2 0-0.2-0.2l-0.5-5.3-1.2 0.3 0.5 5.2c0.1 0.6 0.6 1.1 1.2 1h0.7l0.9-0.1c0.5 0 0.8-0.6 0.8-0.9 0.1 0.4 0.4 0.8 1.1 0.7 0.8 0 1.1-0.6 1.1-1.3zm-1.1 3l-0.7 0.1q-0.1 0-0.1-0.2l-0.3-3q0-0.1 0.1-0.1l0.7-0.1q0.1 0 0.1 0.1l0.3 3q0 0.2-0.1 0.2zm-35.4 5.3l0.1 1.3 1-0.1-0.1-1.3zm27.6-7.5l-0.1-1.3-1 0.1 0.1 1.3z"/>
		<path id="Path 4" fill-rule="evenodd" class="s2" d="m86.2 42.6h0.6q0.1 0 0.1 0.1v1q0 0.1-0.1 0.1h-0.6q-0.1 0-0.1-0.1v-1q0-0.1 0.1-0.1zm-62.1 0h-0.7v3.3h0.7q0.1 0 0.1-0.1v-3.1q0-0.1-0.1-0.1z"/>
		<path id="Path 5" fill-rule="evenodd" class="s2" d="m71.9 11.5c-4.1 1-10.1 1.9-16.9 1.9-6.8 0-12.8-0.9-16.9-1.9-4.5 16.1-16.8 23.1-29.8 24.5 0.3 9.5 1.8 18.5 4.4 27l40.8-3.7c0-1.1 1.2-1.8 1.2-2.6 0-0.9-1.2-1.6-1.2-2.7 0-1.2 1.2-1.9 1.2-2.8 0-0.8-1.2-1.5-1.2-2.7 0-1.2 1.5-2.7 1.5-2.7 0 0 1.5 1.5 1.5 2.7 0 1.2-1.2 1.9-1.2 2.7 0 0.9 1.2 1.6 1.2 2.8 0 1.1-1.2 1.8-1.2 2.7 0 0.8 1 1.4 1.2 2.4l42.8-3.9q2.1-9.3 2.4-19.2c-13-1.4-25.3-8.4-29.8-24.5zm-53.5 34.2c0 0.6-0.5 1-1.2 1h-0.2c-0.7 0-1.2-0.4-1.2-1v-1.3l0.9-0.2v1.6q0 0.1 0.1 0.1h0.5q0.1 0 0.2-0.1v-3.2h-1.6v-0.8h2.5zm3.2 1.1h-2.3v-4.9h2.3v0.8h-1.4v1.2h1.2v0.8h-1.2v1.3h1.4zm3.6-1.1c0 0.6-0.5 1.1-1.1 1.1h-1.6v-4.8h1.6c0.6 0 1.1 0.4 1.1 1zm17.8 2.4l0.2-1.1c-1.3 1.8-3.2 2.1-3.2 2.1 0-2 1-4.1 3.6-4.6 5-1 9.3 1 9.3 1 0 0-5.1-0.4-9.9 2.6zm1.1-5.4l0.7-0.9c-1.1 0.7-2.2 0.7-3 0.6l0.2-1-2 0.4c-0.1-2.9 2.2-3.5 5.6-2.8 6.4 1.2 8.6 5.7 8.6 5.7-3.2-1.7-6.5-2.3-10.1-2zm3.4-5.7l1.5-0.6c-3.2 0.2-4.4-1.5-4.4-1.5l1.7-0.6c-4.9-0.3-6.6-4.2-6.6-4.2 14.7-1.5 14.9 12.6 14.9 12.6 0 0-3.1-4.1-7.1-5.7zm6.6-1.6c-0.5-0.9-1.2-1.6-1.2-2.5 0 0 1.2 0.5 1.3-0.1 0-0.5-0.8-0.9-0.8-1.8 0-1.4 1.2-1.9 1.6-2.9 0.4 1 1.6 1.5 1.6 2.9 0 0.9-0.8 1.3-0.8 1.8 0.1 0.6 1.3 0.1 1.3 0.1-0.1 0.9-0.7 1.6-1.2 2.5-0.7 1.3-0.9 2.1-0.9 2.1 0 0-0.2-0.8-0.9-2.1zm1.7 9.3c0 0 2.2-4.5 8.6-5.7 3.4-0.7 5.7-0.1 5.6 2.8l-2-0.4 0.2 1c-0.8 0.1-1.9 0.1-3.1-0.6l0.7 0.9c-3.5-0.3-6.8 0.3-10 2zm11 2.3l0.2 1.1c-4.8-3-9.9-2.6-9.9-2.6 0 0 4.3-2 9.3-1 2.6 0.5 3.5 2.6 3.6 4.6 0 0-1.9-0.3-3.2-2.1zm-3.1-12.7l1.7 0.6c0 0-1.2 1.7-4.5 1.5l1.5 0.6c-4 1.6-7 5.7-7 5.7 0 0 0.2-14.1 14.8-12.6 0 0-1.6 3.9-6.5 4.2zm20.9 12.5h-2.6v-0.8h0.9v-3.1h-0.8v-0.7l1.7-0.3v4.1h0.8zm3.2-1.1c0 0.6-0.4 1.1-1.1 1.1h-0.3c-0.7 0-1.2-0.5-1.2-1.1v-0.4l0.9-0.1v0.7q0 0.1 0.1 0.1h0.6q0.1 0 0.1-0.1v-1.8c0 0.4-0.3 0.7-0.8 0.7-0.5 0-0.9-0.4-0.9-1v-0.7c0-0.7 0.5-1.1 1.2-1.1h0.3c0.7 0 1.1 0.4 1.1 1.1 0 0 0 2.6 0 2.6zm3.5 0c0 0.7-0.5 1.1-1.2 1.1h-0.3c-0.6 0-1.1-0.4-1.1-1.1v-0.8l0.9-0.2v1.2q0 0.1 0.1 0.1h0.6q0.1 0 0.1-0.1v-1.5q0-0.1-0.1-0.1h-0.8v-0.5l0.7-1h-1.5v-0.8h2.6v0.7l-0.7 1c0.4 0.1 0.7 0.5 0.7 1zm3.2-2.8c0 0.4 0 0.7-0.2 1.1l-1 2.8h-1l1.3-3.5q0 0 0-0.1v-0.3h-1.7v-0.8h2.6zm-50 50.7q0-0.1-0.1-0.1h-0.9q-0.2 0-0.2 0.1v2.5l1.2-0.3z"/>
		<path id="Path 6" fill-rule="evenodd" class="s2" d="m59.4 85.3v-0.6c0-1.5-0.5-2.2-1.6-2.3 0.3 0.4 0.4 0.8 0.4 1.4 0 0.6-0.2 1.1-0.5 1.5z"/>
		<path id="Path 7" fill-rule="evenodd" class="s2" d="m32.2 97.1c9 10 18.2 15.9 22.8 18.6 4.6-2.7 13.8-8.6 22.8-18.6 7-7.8 12.6-16.7 16.6-26.2l-75.7 6.8c3.7 7 8.2 13.5 13.5 19.4zm13.7-6.5c-0.3 0-0.6-0.3-0.6-0.7 0-0.3 0.3-0.6 0.6-0.6 0.4 0 0.7 0.3 0.7 0.6 0 0.4-0.3 0.7-0.7 0.7zm4.6 7.5c0 0.6-0.4 1-1 1h-2.8v-7h1.4v5.9h0.9q0.2 0 0.2-0.2v-2l1.3-0.2zm6.1 1h-1.3v-2.2h-1.3v2.2h-1.3v-5.5c0-0.9 0.8-1.6 1.8-1.6h0.4c1 0 1.7 0.7 1.7 1.6zm10.2-19.1l1.2-0.3v8.5h-1.2zm-0.1 12.1h1.3v7h-1.3zm-0.7 5.9c0 0.6-0.4 1.1-1 1.1h-2.7v-7h1.3v5.9h0.9q0.2-0.1 0.2-0.2v-2l1.3-0.3zm-1.5-18l1.2-0.3v8.5h-3.8v-2.9h2.6zm-2.6-0.2h0.3l-0.1-0.2c-0.1-0.2-0.1-0.3-0.1-0.4 0-0.2 0.2-0.5 0.6-0.5 0.3 0 0.5 0.2 0.5 0.5v0.2h-0.4v-0.1q0-0.2-0.2-0.2c0 0-0.1 0-0.1 0.1q0 0.1 0 0.2l0.3 0.4h0.4v0.3h-1.2zm0 1.1l1.2-0.4v4.2h-1.2zm-0.5 18.3h-1.4v-3.1h-1.2v3.1h-1.3v-7h1.3v2.9l1.2-0.2v-2.7h1.4zm-16.7-18.3l0.2 0.1c-0.9 0.9-2.2 2.5-2.2 3.9 0 1.2 0.9 1.8 2.2 1.8 1.2 0 1.6-0.4 1.6-0.9 0-0.7-1.4-1.4-1.4-2.6 0-1.3 0.8-1.7 3-2.8l2.6 5h0.9v-5.3l1.3-0.3v5.6h2.1c-0.3-0.4-0.5-1-0.5-1.6 0-0.5 0.2-1 0.4-1.4h-1v-1.2h3.1c2.6 0 3.7 1.1 3.7 3.2v3.9h-2.4q-1.1 0-1.9-0.4c-0.5 0.3-1.2 0.4-1.9 0.4h-3.7l-3.2-6.1c-0.7 0.3-0.8 0.5-0.8 0.7 0 0.7 1.7 1.4 1.7 3.4 0 1.4-1.3 2.6-3.3 2.6-1.8 0-3.2-1-3.2-3.1 0-1.5 1-3.4 2.7-4.9zm0.3 9.1c0 0.4-0.3 0.7-0.7 0.7-0.3 0-0.6-0.3-0.6-0.7 0-0.4 0.3-0.6 0.6-0.6 0.4 0 0.7 0.2 0.7 0.6zm-3 3.7c0-1 0.7-1.6 1.7-1.6h0.4c1.1 0 1.8 0.6 1.8 1.6v5.5h-1.4v-2.3h-1.2v2.3h-1.3c0 0 0-5.5 0-5.5z"/>
		<path id="Path 8" fill-rule="evenodd" class="s2" d="m55.1 93.2h-0.9q-0.1 0-0.1 0.2v2.4l1.2-0.2v-2.2q0-0.2-0.2-0.2zm1.3-7.9c0.6-0.4 0.9-1 0.9-1.5 0-0.5-0.3-1.1-0.9-1.5-0.6 0.4-0.9 1-0.9 1.5 0 0.5 0.3 1.1 0.9 1.5z"/>
	</g>
</svg>